<svg width="67" height="53" viewBox="0 0 67 53" fill="none" xmlns="http://www.w3.org/2000/svg">
<path d="M67 19.775C67 24.1382 66.1335 28.4586 64.45 32.4897C62.7664 36.5207 60.2988 40.1834 57.1881 43.2686C54.0773 46.3539 50.3843 48.8012 46.3199 50.4709C42.2555 52.1406 37.8993 53 33.5 53C29.1007 53 24.7445 52.1406 20.6801 50.4709C16.6157 48.8012 12.9227 46.3539 9.81192 43.2686C6.70116 40.1834 4.23357 36.5207 2.55003 32.4897C0.866502 28.4586 -3.84597e-07 24.1382 0 19.775H9.09474C9.09474 22.9537 9.726 26.1012 10.9525 29.0378C12.179 31.9745 13.9766 34.6428 16.2429 36.8905C18.5091 39.1381 21.1995 40.921 24.1605 42.1374C27.1215 43.3539 30.2951 43.9799 33.5 43.9799C36.7049 43.9799 39.8785 43.3539 42.8395 42.1374C45.8005 40.921 48.4909 39.1381 50.7571 36.8905C53.0234 34.6428 54.821 31.9745 56.0475 29.0378C57.274 26.1012 57.9053 22.9537 57.9053 19.775H67Z" fill="url(#paint0_linear_1_4)"/>
<path d="M53.3654 19.7387C53.3654 30.6401 44.455 39.4774 33.4633 39.4774C22.4717 39.4774 13.5613 30.6401 13.5613 19.7387C13.5613 8.83731 22.4717 0 33.4633 0C44.455 0 53.3654 8.83731 53.3654 19.7387ZM20.9469 19.7387C20.9469 26.5946 26.5507 32.1524 33.4633 32.1524C40.376 32.1524 45.9798 26.5946 45.9798 19.7387C45.9798 12.8828 40.376 7.32499 33.4633 7.32499C26.5507 7.32499 20.9469 12.8828 20.9469 19.7387Z" fill="url(#paint1_linear_1_4)"/>
<path d="M67 11.4506C67 13.92 64.9816 15.9218 62.4918 15.9218C60.002 15.9218 57.9836 13.92 57.9836 11.4506C57.9836 8.98125 60.002 6.97942 62.4918 6.97942C64.9816 6.97942 67 8.98125 67 11.4506Z" fill="url(#paint2_linear_1_4)"/>
<defs>
<linearGradient id="paint0_linear_1_4" x1="13.1581" y1="41.1859" x2="63.2061" y2="-13.3515" gradientUnits="userSpaceOnUse">
<stop stop-color="#FC9025"/>
<stop offset="0.59375" stop-color="#D92E7B"/>
<stop offset="1" stop-color="#A224BC"/>
</linearGradient>
<linearGradient id="paint1_linear_1_4" x1="13.1581" y1="41.1859" x2="63.2061" y2="-13.3515" gradientUnits="userSpaceOnUse">
<stop stop-color="#FC9025"/>
<stop offset="0.59375" stop-color="#D92E7B"/>
<stop offset="1" stop-color="#A224BC"/>
</linearGradient>
<linearGradient id="paint2_linear_1_4" x1="13.1581" y1="41.1859" x2="63.2061" y2="-13.3515" gradientUnits="userSpaceOnUse">
<stop stop-color="#FC9025"/>
<stop offset="0.59375" stop-color="#D92E7B"/>
<stop offset="1" stop-color="#A224BC"/>
</linearGradient>
</defs>
</svg>
