<svg width="12" height="12" viewBox="0 0 12 12" fill="none" xmlns="http://www.w3.org/2000/svg">
<path fill-rule="evenodd" clip-rule="evenodd" d="M11.7666 5.56087C11.3878 6.05334 10.6815 6.14547 10.189 5.76665L6 2.54431L1.81096 5.76665C1.31849 6.14547 0.612173 6.05334 0.233352 5.56087C-0.145471 5.0684 -0.0533419 4.36208 0.439126 3.98326L5.31408 0.233295C5.71846 -0.0777655 6.28154 -0.0777655 6.68592 0.233295L11.5609 3.98326C12.0533 4.36208 12.1455 5.0684 11.7666 5.56087Z" fill="white"/>
<path fill-rule="evenodd" clip-rule="evenodd" d="M11.7666 11.5609C11.3878 12.0533 10.6815 12.1455 10.189 11.7666L6 8.54431L1.81096 11.7666C1.31849 12.1455 0.612173 12.0533 0.233352 11.5609C-0.145471 11.0684 -0.0533419 10.3621 0.439126 9.98326L5.31408 6.2333C5.71846 5.92223 6.28154 5.92223 6.68592 6.2333L11.5609 9.98326C12.0533 10.3621 12.1455 11.0684 11.7666 11.5609Z" fill="white"/>
</svg>
